<svg width="3000" height="630" viewBox="0 0 3000 630" fill="none" xmlns="http://www.w3.org/2000/svg">
<g clip-path="url(#clip0_101_117)">
<rect width="3000" height="630" fill="#173561"/>
<circle cx="1500" cy="315" r="651" stroke="#FFFDF1" stroke-width="19.9385"/>
<circle cx="1500" cy="315" r="701" stroke="#FFFDF1" stroke-width="19.9385"/>
<circle cx="1500" cy="315" r="750" stroke="#FFFDF1" stroke-width="19.9385"/>
<circle cx="1500" cy="315" r="800" stroke="#FFFDF1" stroke-width="19.9385"/>
<circle cx="1500" cy="315" r="850" stroke="#FFFDF1" stroke-width="19.9385"/>
<circle cx="1500" cy="315" r="900" stroke="#FFFDF1" stroke-width="19.9385"/>
<circle cx="1500" cy="315" r="950" stroke="#FFFDF1" stroke-width="19.9385"/>
<circle cx="1500" cy="315" r="1000" stroke="#FFFDF1" stroke-width="19.9385"/>
<circle cx="1500" cy="315" r="1050" stroke="#FFFDF1" stroke-width="19.9385"/>
<circle cx="1500" cy="315" r="1100" stroke="#FFFDF1" stroke-width="19.9385"/>
<circle cx="1500" cy="315" r="1150" stroke="#FFFDF1" stroke-width="19.9385"/>
<circle cx="1500" cy="315" r="1200" stroke="#FFFDF1" stroke-width="19.9385"/>
<circle cx="1500" cy="315" r="1250" stroke="#FFFDF1" stroke-width="19.9385"/>
<circle cx="1500" cy="315" r="1300" stroke="#FFFDF1" stroke-width="19.9385"/>
<circle cx="1500" cy="315" r="1350" stroke="#FFFDF1" stroke-width="19.9385"/>
<circle cx="1500" cy="315" r="1400" stroke="#FFFDF1" stroke-width="19.9385"/>
<circle cx="1500" cy="315" r="1450" stroke="#FFFDF1" stroke-width="19.9385"/>
<circle cx="1500" cy="315" r="1500" stroke="#FFFDF1" stroke-width="19.9385"/>
<circle cx="1500" cy="315" r="601" stroke="#FFFDF1" stroke-width="19.9385"/>
<circle cx="1500" cy="315" r="551" stroke="#FFFDF1" stroke-width="19.9385"/>
<circle cx="1500.5" cy="315.5" r="500.5" stroke="#FFFDF1" stroke-width="19.9385"/>
<circle cx="1500.5" cy="315.5" r="450.5" stroke="#FFFDF1" stroke-width="19.9385"/>
<circle cx="1500.5" cy="315.5" r="400.5" stroke="#FFFDF1" stroke-width="19.9385"/>
<circle cx="1500.5" cy="315.5" r="350.5" stroke="#FFFDF1" stroke-width="19.9385"/>
<circle cx="1500.5" cy="315.5" r="300.5" stroke="#FFFDF1" stroke-width="19.9385"/>
<circle cx="1500.5" cy="315.5" r="250.5" stroke="#FFFDF1" stroke-width="19.9385"/>
<circle cx="1500.5" cy="315.5" r="200.5" stroke="#FFFDF1" stroke-width="19.9385"/>
<circle cx="1500.5" cy="315.5" r="150.5" stroke="#FFFDF1" stroke-width="19.9385"/>
<path d="M1499.65 400H1431.74V223.504H1498.96C1517.12 223.504 1532.8 227.037 1546.02 234.104C1559.29 241.113 1569.52 251.225 1576.7 264.439C1583.94 277.596 1587.56 293.367 1587.56 311.752C1587.56 330.137 1583.97 345.936 1576.78 359.151C1569.6 372.308 1559.43 382.419 1546.28 389.486C1533.12 396.495 1517.58 400 1499.65 400ZM1479.66 359.323H1497.93C1506.66 359.323 1514.1 357.915 1520.25 355.1C1526.45 352.285 1531.17 347.43 1534.38 340.536C1537.66 333.641 1539.3 324.047 1539.3 311.752C1539.3 299.457 1537.63 289.862 1534.3 282.968C1531.02 276.073 1526.2 271.219 1519.82 268.403C1513.5 265.588 1505.74 264.181 1496.55 264.181H1479.66V359.323Z" fill="#FF7272"/>
</g>
<defs>
<clipPath id="clip0_101_117">
<rect width="3000" height="630" fill="white"/>
</clipPath>
</defs>
</svg>
